<?xml version="1.0" encoding="UTF-8"?>
<svg version="1.1" xmlns="http://www.w3.org/2000/svg" width="1144" height="1144">
<path d="M0 0 C1.36728955 -0.0070213 2.73457877 -0.01410813 4.10186768 -0.02125549 C8.4481249 -0.04066021 12.79432882 -0.04568963 17.140625 -0.046875 C17.88096985 -0.04731686 18.6213147 -0.04775871 19.38409424 -0.04821396 C41.53422775 -0.05514881 63.3936168 0.25850786 85.390625 3.203125 C86.76566699 3.37742027 88.14083429 3.55072926 89.51611328 3.72314453 C152.21501749 11.6603287 212.37341889 30.07031276 269.390625 57.203125 C270.24672363 57.60853516 271.10282227 58.01394531 271.98486328 58.43164062 C286.25081183 65.23210449 299.83752692 73.0891301 313.390625 81.203125 C314.23463867 81.70521484 315.07865234 82.20730469 315.94824219 82.72460938 C326.72577367 89.14470736 337.15465706 95.95264771 347.390625 103.203125 C348.1125 103.71101563 348.834375 104.21890625 349.578125 104.7421875 C360.54705086 112.47375677 371.09439167 120.59804732 381.390625 129.203125 C381.98246582 129.69586914 382.57430664 130.18861328 383.18408203 130.69628906 C389.51913989 135.97816798 395.76267702 141.35073919 401.85961914 146.9074707 C403.43192428 148.33357133 405.0114632 149.75179024 406.60205078 151.1574707 C413.11313253 156.92440905 419.30604908 162.96424316 425.44165039 169.1237793 C427.08302296 170.77053904 428.72971319 172.41184595 430.37695312 174.05273438 C435.92551645 179.59743289 441.31713074 185.21582757 446.390625 191.203125 C447.42378869 192.38325781 448.45893455 193.56165835 449.49609375 194.73828125 C511.6758232 265.74950815 555.20932301 351.6799543 590.59375 553.8125 C590.6007713 555.17978955 590.60785813 556.54707877 590.61500549 557.91436768 C590.63441021 562.2606249 590.63943963 566.60682882 590.640625 570.953125 C590.64106686 571.69346985 590.64150871 572.4338147 590.64196396 573.19659424 C590.64889881 595.34672775 590.33524214 617.2061168 587.390625 639.203125 C587.21632973 640.57816699 587.04302074 641.95333429 586.87060547 643.32861328 C578.9334213 706.02751749 560.52343724 766.18591889 533.390625 823.203125 C532.98521484 824.05922363 532.57980469 824.91532227 532.16210938 825.79736328 C525.36164551 840.06331183 517.5046199 853.65002692 509.390625 867.203125 C508.88853516 868.04713867 508.38644531 868.89115234 507.86914062 869.76074219 C501.44904264 880.53827367 494.64110229 890.96715706 487.390625 901.203125 C486.88273437 901.925 486.37484375 902.646875 485.8515625 903.390625 C478.11999323 914.35955086 469.99570268 924.90689167 461.390625 935.203125 C460.89788086 935.79496582 460.40513672 936.38680664 459.89746094 936.99658203 C454.61558202 943.33163989 449.24301081 949.57517702 443.6862793 955.67211914 C442.26017867 957.24442428 440.84195976 958.8239632 439.4362793 960.41455078 C433.66934095 966.92563253 427.62950684 973.11854908 421.4699707 979.25415039 C419.82321096 980.89552296 418.18190405 982.54221319 416.54101562 984.18945312 C410.99631711 989.73801645 405.37792243 995.12963074 399.390625 1000.203125 C398.21049219 1001.23628869 397.03209165 1002.27143455 395.85546875 1003.30859375 C324.84424185 1065.4883232 238.9137957 1109.02182301 36.78125 1144.40625 C35.41396045 1144.4132713 34.04667123 1144.42035813 32.67938232 1144.42750549 C28.3331251 1144.44691021 23.98692118 1144.45193963 19.640625 1144.453125 C18.90028015 1144.45356686 18.1599353 1144.45400871 17.39715576 1144.45446396 C-4.75297775 1144.46139881 -26.6123668 1144.14774214 -48.609375 1141.203125 C-49.98441699 1141.02882973 -51.35958429 1140.85552074 -52.73486328 1140.68310547 C-115.43376749 1132.7459213 -175.59216889 1114.33593724 -232.609375 1087.203125 C-233.46547363 1086.79771484 -234.32157227 1086.39230469 -235.20361328 1085.97460938 C-249.46956183 1079.17414551 -263.05627692 1071.3171199 -276.609375 1063.203125 C-277.45338867 1062.70103516 -278.29740234 1062.19894531 -279.16699219 1061.68164062 C-289.94452367 1055.26154264 -300.37340706 1048.45360229 -310.609375 1041.203125 C-311.33125 1040.69523437 -312.053125 1040.18734375 -312.796875 1039.6640625 C-323.76580086 1031.93249323 -334.31314167 1023.80820268 -344.609375 1015.203125 C-345.20121582 1014.71038086 -345.79305664 1014.21763672 -346.40283203 1013.70996094 C-352.73788989 1008.42808202 -358.98142702 1003.05551081 -365.07836914 997.4987793 C-366.65067428 996.07267867 -368.2302132 994.65445976 -369.82080078 993.2487793 C-376.33188253 987.48184095 -382.52479908 981.44200684 -388.66040039 975.2824707 C-390.30177296 973.63571096 -391.94846319 971.99440405 -393.59570312 970.35351562 C-399.14426645 964.80881711 -404.53588074 959.19042243 -409.609375 953.203125 C-410.64253869 952.02299219 -411.67768455 950.84459165 -412.71484375 949.66796875 C-474.8945732 878.65674185 -518.42807301 792.7262957 -553.8125 590.59375 C-553.8195213 589.22646045 -553.82660813 587.85917123 -553.83375549 586.49188232 C-553.85316021 582.1456251 -553.85818963 577.79942118 -553.859375 573.453125 C-553.85981686 572.71278015 -553.86025871 571.9724353 -553.86071396 571.20965576 C-553.86764881 549.05952225 -553.55399214 527.2001332 -550.609375 505.203125 C-550.43507973 503.82808301 -550.26177074 502.45291571 -550.08935547 501.07763672 C-542.1521713 438.37873251 -523.74218724 378.22033111 -496.609375 321.203125 C-496.20396484 320.34702637 -495.79855469 319.49092773 -495.38085938 318.60888672 C-488.58039551 304.34293817 -480.7233699 290.75622308 -472.609375 277.203125 C-472.10728516 276.35911133 -471.60519531 275.51509766 -471.08789062 274.64550781 C-464.66779264 263.86797633 -457.85985229 253.43909294 -450.609375 243.203125 C-450.10148437 242.48125 -449.59359375 241.759375 -449.0703125 241.015625 C-441.33874323 230.04669914 -433.21445268 219.49935833 -424.609375 209.203125 C-424.11663086 208.61128418 -423.62388672 208.01944336 -423.11621094 207.40966797 C-417.83433202 201.07461011 -412.46176081 194.83107298 -406.9050293 188.73413086 C-405.47892867 187.16182572 -404.06070976 185.5822868 -402.6550293 183.99169922 C-396.88809095 177.48061747 -390.84825684 171.28770092 -384.6887207 165.15209961 C-383.04196096 163.51072704 -381.40065405 161.86403681 -379.75976562 160.21679688 C-374.21506711 154.66823355 -368.59667243 149.27661926 -362.609375 144.203125 C-361.42924219 143.16996131 -360.25084165 142.13481545 -359.07421875 141.09765625 C-288.06299185 78.9179268 -202.1325457 35.38442699 0 0 Z " fill="#00FEDA" transform="translate(553.609375,-0.203125)"/>
<path d="M0 0 C0.53302734 0.44811035 1.06605469 0.8962207 1.61523438 1.35791016 C13.86083055 11.67311446 25.52986916 22.45070807 36.875 33.75 C37.67188232 34.54220947 38.46876465 35.33441895 39.28979492 36.15063477 C44.06572458 40.93959014 48.60367576 45.8621597 53 51 C53.94941532 52.0830014 54.89988413 53.16508045 55.8515625 54.24609375 C67.41215645 67.50059291 77.9994956 81.53729642 88 96 C88.43957031 96.62632324 88.87914062 97.25264648 89.33203125 97.89794922 C90.65631058 99.79516064 91.95609555 101.70697989 93.25 103.625 C93.65766602 104.20531982 94.06533203 104.78563965 94.48535156 105.38354492 C95.578125 107.0390625 95.578125 107.0390625 97 110 C95.87744401 113.14821508 94.10828023 115.10101821 91.69140625 117.35546875 C91.03245361 117.97325195 90.37350098 118.59103516 89.69458008 119.22753906 C88.99099365 119.87432617 88.28740723 120.52111328 87.5625 121.1875 C86.83893311 121.8587793 86.11536621 122.53005859 85.36987305 123.22167969 C80.60673823 127.60865224 75.75400054 131.80624585 70.6875 135.83984375 C68.22310122 137.82067591 65.81947231 139.85951767 63.42553711 141.92456055 C-7.03422933 202.55173963 -96.85673488 242.31092211 -281.609375 271.203125 C-282.97666455 271.2101463 -284.34395377 271.21723313 -285.71124268 271.22438049 C-290.0574999 271.24378521 -294.40370382 271.24881463 -298.75 271.25 C-299.86051727 271.25066278 -299.86051727 271.25066278 -300.99346924 271.25133896 C-323.14360275 271.25827381 -345.0029918 270.94461714 -367 268 C-368.37504199 267.82570473 -369.75020929 267.65239574 -371.12548828 267.47998047 C-433.82439249 259.5427963 -493.98279389 241.13281224 -551 214 C-551.85609863 213.59458984 -552.71219727 213.18917969 -553.59423828 212.77148438 C-567.86018683 205.97102051 -581.44690192 198.1139949 -595 190 C-596.26602051 189.24686523 -596.26602051 189.24686523 -597.55761719 188.47851562 C-608.33514867 182.05841764 -618.76403206 175.25047729 -629 168 C-629.721875 167.49210937 -630.44375 166.98421875 -631.1875 166.4609375 C-642.15642586 158.72936823 -652.70376667 150.60507768 -663 142 C-663.88776123 141.26088379 -663.88776123 141.26088379 -664.79345703 140.50683594 C-671.16375675 135.19557399 -677.43970579 129.79102226 -683.5703125 124.203125 C-685.30024881 122.63450108 -687.04695076 121.08428262 -688.8046875 119.546875 C-689.71476563 118.74765625 -690.62484375 117.9484375 -691.5625 117.125 C-692.38878906 116.40570312 -693.21507812 115.68640625 -694.06640625 114.9453125 C-696 113 -696 113 -697 110 C-696.01879883 107.9855957 -696.01879883 107.9855957 -694.45703125 105.67578125 C-693.88364014 104.81968262 -693.31024902 103.96358398 -692.71948242 103.08154297 C-691.77552612 101.7108667 -691.77552612 101.7108667 -690.8125 100.3125 C-690.17481689 99.37293457 -689.53713379 98.43336914 -688.88012695 97.46533203 C-678.72835068 82.61774468 -667.6739943 68.61264478 -656 54.9375 C-655.53787109 54.39593262 -655.07574219 53.85436523 -654.59960938 53.29638672 C-647.15884722 44.63350768 -639.45535436 36.28875483 -631.36108398 28.23071289 C-629.93160283 26.80662508 -628.50759489 25.37721956 -627.08398438 23.94726562 C-621.88393515 18.75445377 -616.59599959 13.76166201 -611 9 C-609.916735 8.05088546 -608.83465365 7.10041782 -607.75390625 6.1484375 C-594.49685026 -5.41438652 -580.4514443 -15.97868506 -566 -26 C-565.43700195 -26.39219727 -564.87400391 -26.78439453 -564.29394531 -27.18847656 C-507.33857683 -66.65386787 -441.18870648 -91.74792816 -373 -103 C-371.79988281 -103.20367188 -370.59976562 -103.40734375 -369.36328125 -103.6171875 C-357.98817487 -105.40097982 -346.47778331 -106.18432953 -335 -107 C-334.14583496 -107.06074707 -333.29166992 -107.12149414 -332.41162109 -107.18408203 C-242.75810443 -113.21620255 -153.93739296 -93.53076497 0 0 Z " fill="#003E35" transform="translate(872,873)"/>
<path d="M0 0 C0.85824419 -0.00320648 1.71648837 -0.00641296 2.60073996 -0.0097166 C5.48429745 -0.0180356 8.36764827 -0.01208561 11.25120926 -0.00622082 C13.33641104 -0.00924064 15.42161172 -0.01312927 17.50681043 -0.01781338 C23.24316355 -0.02812411 28.97945438 -0.02590373 34.71581268 -0.02163279 C40.90001225 -0.01917111 47.08419661 -0.02817283 53.26839066 -0.03567028 C65.38688799 -0.0484353 77.50535797 -0.05021452 89.6238589 -0.04787002 C99.47298515 -0.04603771 109.32210488 -0.04779565 119.17123032 -0.05209446 C120.58601074 -0.05269686 122.00079116 -0.05329806 123.41557159 -0.05389806 C125.54750095 -0.05480531 127.67943031 -0.05571398 129.81135967 -0.05663041 C149.63575539 -0.06506121 169.46014865 -0.06939482 189.2845459 -0.06522369 C190.40576441 -0.06498913 190.40576441 -0.06498913 191.54963381 -0.06474983 C195.33818317 -0.06394404 199.12673252 -0.06309827 202.91528186 -0.06223653 C203.66770332 -0.06206544 204.42012478 -0.06189435 205.19534689 -0.06171808 C206.71692683 -0.06137142 208.23850678 -0.06102289 209.76008672 -0.06067249 C233.43204871 -0.05531615 257.10397345 -0.06324272 280.7759285 -0.08170605 C307.37052997 -0.10242464 333.96510837 -0.11314894 360.55971837 -0.10913056 C363.39581887 -0.10873522 366.23191936 -0.10837367 369.06801987 -0.10803318 C370.11550123 -0.10789708 370.11550123 -0.10789708 371.18414384 -0.10775824 C381.72417582 -0.10659246 392.2641845 -0.11323915 402.80421066 -0.1238451 C414.79323518 -0.1358968 426.7822066 -0.13717828 438.77123639 -0.12505493 C444.88885755 -0.11915698 451.00637838 -0.11809219 457.12399292 -0.13005733 C462.72495454 -0.14088469 468.32573166 -0.13785016 473.92668453 -0.12379565 C475.95224161 -0.12114003 477.977813 -0.12354231 480.00335607 -0.13153151 C495.01581051 -0.18663097 508.06844155 0.57833742 519.65288162 11.36385059 C523.86369558 15.8865767 527.13456399 20.48892068 529.38725662 26.25447559 C529.72815417 27.07453461 530.06905172 27.89459362 530.4202795 28.73950291 C531.70007484 33.39157334 531.66685865 37.71072509 531.64795303 42.51356983 C531.65177858 43.54477947 531.65560413 44.57598911 531.6595456 45.63844752 C531.66986188 49.09286555 531.66588597 52.54711693 531.66191483 56.00154591 C531.66626211 58.47878644 531.67144531 60.95602564 531.6774025 63.43326283 C531.68941148 69.46371467 531.69194383 75.49410107 531.68960223 81.52455887 C531.68781785 86.42851147 531.6895713 91.33245057 531.69382668 96.23640156 C531.69442186 96.93486778 531.69501705 97.63333401 531.69563028 98.35296588 C531.69684206 99.77202036 531.6980562 101.19107485 531.69927265 102.61012933 C531.71014646 115.91530474 531.70798677 129.2204548 531.70188781 142.52563164 C531.69672178 154.68529608 531.70796605 166.84488033 531.72698603 179.00452891 C531.74638155 191.50045186 531.75461723 203.99633691 531.75086278 216.492275 C531.74895295 223.50354287 531.75141674 230.51474255 531.76557732 237.52599812 C531.77876444 244.12190493 531.77620775 250.71767812 531.76316643 257.31359386 C531.76080176 259.73146017 531.76353138 262.14933777 531.77178955 264.56719112 C531.78226786 267.87412823 531.77414703 271.18052868 531.76147842 274.48744678 C531.76885271 275.43863557 531.77622699 276.38982436 531.78382474 277.36983705 C531.69242898 288.7523481 528.108714 299.10920656 520.27788162 307.52010059 C510.59400243 316.53612605 500.49072953 319.57834358 487.42657375 319.51453781 C486.5671556 319.51834348 485.70773745 319.52214915 484.82227632 319.52607015 C481.95277638 319.53634721 479.08347569 319.53248695 476.21396255 319.52863026 C474.13172123 319.53308474 472.0494816 319.53839948 469.96724445 319.54449898 C464.25293809 319.55866367 458.53868617 319.56034256 452.82436478 319.55990207 C446.65858025 319.56155158 440.49281806 319.57462046 434.32704544 319.58609486 C421.55089614 319.60774388 408.7747697 319.61634925 395.99860634 319.62112986 C395.30464669 319.62139104 394.61068704 319.62165221 393.89569831 319.6219213 C393.20031781 319.62218158 392.50493731 319.62244185 391.78848467 319.62271001 C384.0752246 319.62579492 376.36196795 319.63230051 368.64871025 319.63892269 C345.3452582 319.65856568 322.04180983 319.67497333 298.73834896 319.67779922 C297.99340129 319.67789329 297.24845363 319.67798735 296.48093179 319.67808426 C293.4620984 319.67846273 290.44326501 319.67882673 287.42443162 319.67918724 C285.15235571 319.67945896 282.8802798 319.67973563 280.60820389 319.6800127 C279.48203318 319.68014474 279.48203318 319.68014474 278.33311154 319.68027944 C254.74117839 319.68318513 231.14932717 319.70528591 207.55742264 319.74153614 C181.04225012 319.78227726 154.52713343 319.80595789 128.0119279 319.80625874 C125.18370203 319.80635556 122.35547616 319.80652228 119.52725029 319.80673885 C118.48270517 319.80680502 118.48270517 319.80680502 117.41705813 319.80687253 C106.2200464 319.8079915 95.02311689 319.82538697 83.82613162 319.84855817 C72.5700294 319.87141941 61.31403661 319.87519028 50.05790981 319.86100888 C43.96222818 319.85383438 37.86683095 319.85472141 31.77118111 319.87741947 C26.18801686 319.89801005 20.60535567 319.89540777 15.02219687 319.87454463 C13.00543827 319.87105001 10.98864337 319.87595847 8.97193237 319.89024907 C-6.51185636 319.99287357 -18.82356783 317.90705799 -30.29243088 306.59822559 C-38.71199071 297.38278697 -40.92206548 287.00875067 -40.87343979 274.83080006 C-40.87726534 273.80604867 -40.88109088 272.78129729 -40.88503236 271.72549284 C-40.89531937 268.30492521 -40.89137834 264.88452679 -40.88740158 261.46394825 C-40.89175042 259.00611688 -40.89693415 256.54828687 -40.90288925 254.09045887 C-40.9148829 248.1150922 -40.91743289 242.13979159 -40.91508899 236.16441895 C-40.91330301 231.30532727 -40.91506147 226.44624921 -40.91931343 221.58715916 C-40.91990862 220.89451463 -40.92050381 220.20187011 -40.92111703 219.48823636 C-40.92232884 218.08093894 -40.92354297 216.67364153 -40.92475941 215.26634412 C-40.93562591 202.08038304 -40.9334767 188.89444756 -40.92737456 175.70848505 C-40.92220636 163.65887844 -40.93345986 151.60935269 -40.95247278 139.55976208 C-40.9718683 127.17225694 -40.98010417 114.78479002 -40.97634953 102.39726961 C-40.97444006 95.44862956 -40.97690018 88.50005833 -40.99106407 81.5514307 C-41.00425098 75.01623441 -41.00169461 68.48117298 -40.98865318 61.94596767 C-40.98628868 59.55067547 -40.98901752 57.15537187 -40.99727631 54.76009274 C-41.00775585 51.48391438 -40.9996329 48.2082776 -40.98696518 44.93211842 C-40.99802661 43.51905444 -40.99802661 43.51905444 -41.0093115 42.07744372 C-40.91729875 30.72279302 -37.31205016 20.37595325 -29.50336838 11.98885059 C-24.98064227 7.77803663 -20.37829829 4.50716823 -14.61274338 2.25447559 C-13.75872838 1.91344974 -12.90471338 1.57242388 -12.02481914 1.22106391 C-7.96564588 0.07116288 -4.17978617 -0.02316802 0 0 Z " fill="#120F2A" transform="translate(326.61274337768555,170.7455244064331)"/>
<path d="M0 0 C0.33 0 0.66 0 1 0 C1.00238835 1.1916017 1.00477671 2.38320339 1.00723743 3.61091423 C1.06464172 31.91993401 1.1374038 60.22888599 1.22898628 88.53781568 C1.24025396 92.02488458 1.25139249 95.51195387 1.26245117 98.99902344 C1.26465486 99.69321358 1.26685854 100.38740371 1.269129 101.10262991 C1.3044668 112.33145236 1.32935076 123.56027473 1.35034702 134.7891321 C1.37213715 146.31761374 1.40543917 157.84601442 1.44870156 169.3744365 C1.472628 175.84698623 1.49136066 182.31945647 1.49761391 188.79204941 C1.50366725 194.8872548 1.52367664 200.98225679 1.55427551 207.07738686 C1.56305164 209.31140162 1.5667792 211.54544296 1.56500816 213.77947426 C1.56334986 216.83717433 1.5801026 219.89425843 1.60127258 222.95187378 C1.59642501 223.82933632 1.59157743 224.70679886 1.58658296 225.61085117 C1.71167095 236.61020886 5.3610521 246.89405849 12.88671875 255.04296875 C21.14297234 262.65040084 30.36647962 266.3168588 41.5943327 266.25447559 C42.45058891 266.25768207 43.30684513 266.26088855 44.1890485 266.26419219 C47.06585343 266.27251102 49.9424512 266.26656126 52.81925964 266.26069641 C54.89962394 266.26371624 56.97998712 266.26760488 59.06034833 266.27228898 C64.78336931 266.28259963 70.50632785 266.28037934 76.22935402 266.27610838 C82.39925768 266.27364667 88.56914608 266.28264849 94.73904419 266.29014587 C106.82980307 266.30291104 118.92053452 266.30469008 131.01129701 266.30234561 C140.83848484 266.30051323 150.66566615 266.3022714 160.49285316 266.30657005 C161.90453855 266.30717245 163.31622394 266.30777365 164.72790933 266.30837366 C166.8551886 266.30928091 168.98246787 266.31018958 171.10974714 266.31110601 C190.89127363 266.31953692 210.67279765 266.32387036 230.45432568 266.31969929 C231.20019661 266.31954291 231.94606754 266.31938654 232.71454062 266.31922542 C236.49492547 266.31841964 240.2753103 266.31757386 244.05569514 266.31671212 C245.18189112 266.31645549 245.18189112 266.31645549 246.33083854 266.31619367 C247.84913446 266.31584702 249.36743038 266.31549849 250.8857263 266.31514808 C274.50399181 266.30979233 298.12221997 266.31771659 321.74047852 266.33618164 C348.27612594 266.35690325 374.81175024 266.3676239 401.34740621 266.36360615 C404.17762681 266.36321081 407.0078474 266.36284926 409.83806801 266.36250877 C410.53493835 266.36241804 411.23180868 266.36232731 411.9497963 266.36223383 C422.46534724 266.36106833 432.98087481 266.36771268 443.49641991 266.37832069 C455.45906545 266.39037623 467.42165777 266.39164968 479.3843086 266.37953053 C485.48787688 266.37363508 491.59134461 266.37256088 497.69490623 266.38453293 C503.28420093 266.39536879 508.87331084 266.39231555 514.46259681 266.37827124 C516.48278814 266.37561797 518.50299384 266.3780106 520.52317109 266.38600711 C535.56027123 266.4413891 549.37746601 265.90360903 561.0390625 255.11328125 C569.60674875 245.83465933 572.30574554 235.62661279 572.2784729 223.23034668 C572.2842653 222.27612713 572.2900577 221.32190759 572.29602563 220.3387723 C572.31296266 217.15745407 572.31589672 213.97628147 572.31884766 210.79492188 C572.32815017 208.50805305 572.33831932 206.22118761 572.34928894 203.93432617 C572.37656648 197.73665764 572.39173177 191.5390118 572.40471697 185.34129906 C572.42035727 178.86035944 572.44714465 172.37946611 572.4727478 165.89855957 C572.51420705 155.02418365 572.54880597 144.1498058 572.578125 133.27539062 C572.60833515 122.07745543 572.6426967 110.87954559 572.68261719 99.68164062 C572.68507874 98.99075944 572.68754028 98.29987825 572.69007643 97.58806127 C572.70245151 94.12192157 572.71490795 90.65578217 572.72740483 87.18964291 C572.83088281 58.45979778 572.91996894 29.72991948 573 1 C623.29006693 63.13693044 639.24563749 154.63156812 631.61328125 232.2890625 C631.41104576 234.19294241 631.20671746 236.09660152 631 238 C630.91411621 238.85432617 630.82823242 239.70865234 630.73974609 240.58886719 C624.80237336 297.77102189 599.95288051 355.08456882 566 401 C565.56977539 401.58330078 565.13955078 402.16660156 564.69628906 402.76757812 C551.00592751 421.21376395 535.49947141 439.09304287 518 454 C516.94686697 454.92589074 515.89485946 455.85306265 514.84375 456.78125 C489.57058834 478.96128924 461.20673841 496.83612712 430.63891602 510.78271484 C428.7711607 511.64427725 426.91308618 512.52697209 425.06225586 513.42431641 C417.1072452 517.2337235 409.05981714 520.20824386 400.68920898 522.93261719 C398.56543075 523.62404585 396.4456111 524.32664594 394.32617188 525.03125 C382.52597694 528.93326322 370.67980897 532.7496885 358.4375 535 C357.58833008 535.16097168 356.73916016 535.32194336 355.86425781 535.48779297 C350.3414096 536.49754557 344.8026364 537.32668453 339.23828125 538.0703125 C338.2458567 538.20333771 338.2458567 538.20333771 337.23338318 538.33905029 C333.93521112 538.77781144 330.63629465 539.20029282 327.33374023 539.60546875 C326.13563721 539.75886719 324.93753418 539.91226563 323.703125 540.0703125 C322.62708008 540.20195801 321.55103516 540.33360352 320.44238281 540.46923828 C319.63639648 540.64438965 318.83041016 540.81954102 318 541 C317.67 541.66 317.34 542.32 317 543 C298.85 543 280.7 543 262 543 C262 542.67 262 542.34 262 542 C260.97044189 541.88519287 259.94088379 541.77038574 258.88012695 541.65209961 C215.30952194 536.72592868 173.36490408 526.84140443 134 507 C133.03320312 506.52062988 132.06640625 506.04125977 131.0703125 505.54736328 C105.26564078 492.70852317 81.67493026 477.00869427 60 458 C59.32582031 457.42507813 58.65164063 456.85015625 57.95703125 456.2578125 C47.34516161 447.16192424 37.0924794 437.62384435 28 427 C27.07126878 425.94447033 26.14151641 424.88983857 25.2109375 423.8359375 C13.69010523 410.70343135 3.39641342 396.72144568 -6 382 C-7.05380859 380.35451172 -7.05380859 380.35451172 -8.12890625 378.67578125 C-25.42421445 351.04249562 -38.24994345 321.17822493 -47.17724609 289.87597656 C-47.90435897 287.3343179 -48.6603634 284.80373541 -49.42578125 282.2734375 C-53.64742366 267.84697309 -55.68295874 252.87367701 -57.72299194 238.00753784 C-57.9073097 236.6717468 -58.0959547 235.33654554 -58.28897095 234.00198364 C-60.0496261 221.72285305 -60.36128247 209.58111596 -60.3125 197.1875 C-60.31034485 196.19933289 -60.3081897 195.21116577 -60.30596924 194.1930542 C-60.07370985 127.5990517 -41.05014892 53.6802635 0 0 Z " fill="#04C0B8" transform="translate(285,223)"/>
<path d="M0 0 C156.09 0 312.18 0 473 0 C471.33303713 7.50133291 469.34450065 13.8390328 466.5 20.875 C465.8356897 22.52048828 465.8356897 22.52048828 465.15795898 24.19921875 C456.56560196 45.08221697 445.0320258 64.31480887 431 82 C430.25234375 82.95261719 429.5046875 83.90523437 428.734375 84.88671875 C415.97652716 100.55319543 401.39176842 115.16371091 385 127 C383.9584375 127.79792969 382.916875 128.59585938 381.84375 129.41796875 C354.66653281 149.99348255 321.95632407 163.06188998 289 171 C288.33846924 171.16209961 287.67693848 171.32419922 286.99536133 171.49121094 C226.60020653 185.7018356 159.66609171 172.29641375 107.3515625 140.1796875 C98.92195459 134.88417637 90.80004751 129.18882018 83 123 C82.04738281 122.25234375 81.09476562 121.5046875 80.11328125 120.734375 C64.44680457 107.97652716 49.83628909 93.39176842 38 77 C37.20207031 75.9584375 36.40414062 74.916875 35.58203125 73.84375 C21.82233761 55.66922536 0 23.6707241 0 0 Z " fill="#008C79" transform="translate(335,490)"/>
<path d="M0 0 C1.2365332 0.50200928 1.2365332 0.50200928 2.49804688 1.01416016 C35.35777372 14.45174853 65.91574003 31.92389919 93 55 C94.17695827 55.99103396 95.35405015 56.98190926 96.53125 57.97265625 C102.58725685 63.09280711 108.58140838 68.19436612 114 74 C114 74.33 114 74.66 114 75 C-45.39 75 -204.78 75 -369 75 C-359.46128013 63.87149349 -348.66385055 54.78594766 -337 46 C-336.32195312 45.48679199 -335.64390625 44.97358398 -334.9453125 44.44482422 C-257.90225048 -13.531491 -158.65016593 -35.7843118 0 0 Z " fill="#04C0B9" transform="translate(699,96)"/>
<path d="M0 0 C3.0625 1.9375 3.0625 1.9375 5 5 C5.69056879 8.15607058 5.90641796 10.88618773 5 14 C1.56258173 18.04327121 -2.55414414 20.94832336 -6.9375 23.875 C-7.62352295 24.33986816 -8.3095459 24.80473633 -9.01635742 25.28369141 C-10.52675567 26.30708507 -12.03862536 27.32830957 -13.55175781 28.34765625 C-17.04917471 30.70809877 -20.53301643 33.08827973 -24.01782227 35.46728516 C-26.84018841 37.39390078 -29.66410002 39.31823379 -32.48828125 41.2421875 C-37.49642326 44.6552855 -42.49930847 48.07599834 -47.5 51.5 C-55.2626631 56.81478484 -63.03450638 62.11600574 -70.80859375 67.4140625 C-76.7099386 71.43657806 -82.60697121 75.4653125 -88.5 79.5 C-96.26268372 84.81475479 -104.03450631 90.11600569 -111.80859375 95.4140625 C-117.7099386 99.43657806 -123.60697121 103.4653125 -129.5 107.5 C-137.26268372 112.81475479 -145.03450631 118.11600569 -152.80859375 123.4140625 C-159.48098487 127.96214396 -166.1469864 132.51946707 -172.80981445 137.08154297 C-177.04094583 139.97780837 -181.27466403 142.87021807 -185.51171875 145.7578125 C-186.44773926 146.39589844 -187.38375977 147.03398437 -188.34814453 147.69140625 C-190.2243165 148.96907452 -192.10157668 150.24514644 -193.97998047 151.51953125 C-198.28848028 154.44658044 -202.5752813 157.39468199 -206.80859375 160.4296875 C-207.90941284 161.21158447 -207.90941284 161.21158447 -209.0324707 162.00927734 C-210.38887029 162.97557951 -211.73820103 163.95191299 -213.07885742 164.93994141 C-217.41441115 168.01337901 -217.41441115 168.01337901 -220.22265625 167.94921875 C-222.1873991 166.89991653 -223.66412492 165.8168791 -225.3125 164.3125 C-226.00214844 163.68730469 -226.69179688 163.06210937 -227.40234375 162.41796875 C-228.25957031 161.62003906 -229.11679687 160.82210937 -230 160 C-230.55187988 159.48646973 -231.10375977 158.97293945 -231.67236328 158.44384766 C-234.23954773 156.05323842 -236.80410614 153.65987576 -239.36401367 151.26147461 C-243.69078808 147.20898919 -248.06480045 143.21690026 -252.484375 139.265625 C-256.03268798 136.0699394 -259.53577726 132.82624735 -263.04125977 129.58374023 C-266.70710918 126.19297728 -270.38021607 122.81040923 -274.0625 119.4375 C-274.55347168 118.98777832 -275.04444336 118.53805664 -275.55029297 118.07470703 C-276.53884515 117.16937398 -277.52745177 116.26410037 -278.51611328 115.35888672 C-280.51133399 113.53173988 -282.50563588 111.70359217 -284.49975586 109.87524414 C-285.4938161 108.96400877 -286.48811655 108.05303538 -287.48266602 107.14233398 C-290.08738573 104.75670684 -292.68748971 102.36629202 -295.28125 99.96875 C-295.82007813 99.47181641 -296.35890625 98.97488281 -296.9140625 98.46289062 C-298.41257766 97.08063957 -299.90946469 95.69662405 -301.40625 94.3125 C-303.53975352 92.41034023 -305.67948463 90.66376574 -308 89 C-317.11501114 93.08603948 -324.81054137 101.53035006 -332.30761719 108.05761719 C-336.88902165 112.0457796 -341.50653702 115.98737693 -346.15136719 119.90136719 C-350.16384184 123.28481948 -354.14710388 126.70100184 -358.125 130.125 C-362.18620876 133.61823856 -366.27518971 137.06448707 -370.4375 140.4375 C-375.48933717 144.53979949 -380.4030598 148.78701978 -385.31005859 153.06005859 C-389.89096638 157.04703759 -394.50741507 160.98811681 -399.15136719 164.90136719 C-403.16384184 168.28481948 -407.14710388 171.70100184 -411.125 175.125 C-415.18620876 178.61823856 -419.27518971 182.06448707 -423.4375 185.4375 C-428.72161796 189.72149429 -433.8504406 194.17345702 -438.96264648 198.65991211 C-439.87832397 199.46054077 -439.87832397 199.46054077 -440.8125 200.27734375 C-441.62654297 200.99265259 -441.62654297 200.99265259 -442.45703125 201.72241211 C-446.37517239 204.96665777 -448.84011597 205.51193379 -453.76953125 205.3671875 C-456 205 -456 205 -459.0625 203.0625 C-461.29844352 199.52826669 -461.59207226 197.3702954 -461.6640625 193.28125 C-460.67843558 189.89533165 -458.58843177 188.34122199 -456 186 C-455.17242187 185.22140625 -454.34484375 184.4428125 -453.4921875 183.640625 C-448.12570788 178.73870631 -442.65670618 174.03601936 -437.00390625 169.46875 C-433.51283821 166.59962776 -430.09621768 163.65355539 -426.6875 160.6875 C-426.05392578 160.13634521 -425.42035156 159.58519043 -424.76757812 159.01733398 C-423.48151545 157.89821841 -422.19554552 156.77899624 -420.90966797 155.65966797 C-413.86727609 149.5392154 -406.80997199 143.43969663 -399.5625 137.5625 C-393.21723119 132.40813208 -387.07490552 127.02637235 -380.90966797 121.65966797 C-373.86727609 115.5392154 -366.80997199 109.43969663 -359.5625 103.5625 C-354.51066283 99.46020051 -349.5969402 95.21298022 -344.68994141 90.93994141 C-340.11410695 86.95737797 -335.50687346 83.0156025 -330.86181641 79.11401367 C-327.96586463 76.67811217 -325.09675138 74.21654362 -322.25390625 71.71875 C-321.62750244 71.17162354 -321.00109863 70.62449707 -320.35571289 70.06079102 C-319.15087332 69.0068536 -317.95054909 67.94772354 -316.75561523 66.88256836 C-313.66159037 64.18489867 -310.93183734 62.23970244 -307 61 C-306.3709375 61.64066406 -305.741875 62.28132813 -305.09375 62.94140625 C-300.61092986 67.47148503 -296.10293335 71.87943636 -291.26171875 76.0234375 C-288.28614914 78.62384894 -285.39578059 81.31138448 -282.5 84 C-279.08048191 87.17239976 -275.66158323 90.33261181 -272.125 93.375 C-267.50750636 97.36639281 -263.08630875 101.56820205 -258.63378906 105.74121094 C-254.30850995 109.79091228 -249.93726848 113.78161242 -245.51953125 117.73046875 C-241.95437672 120.94187152 -238.4363255 124.20332989 -234.91479492 127.46240234 C-229.63966675 132.34128781 -224.32546334 137.17613341 -219 142 C-213.85540347 140.32954336 -209.7624685 137.25546606 -205.375 134.1875 C-203.66023865 133.00118297 -201.9453926 131.81498835 -200.23046875 130.62890625 C-199.35825684 130.02320801 -198.48604492 129.41750977 -197.58740234 128.79345703 C-193.63311746 126.05254585 -189.66033313 123.33892248 -185.6875 120.625 C-184.10415056 119.54169021 -182.5208175 118.45835647 -180.9375 117.375 C-171.02907393 110.59973595 -161.10752423 103.84368271 -151.18847656 97.08398438 C-140.84710626 90.03615874 -130.50916312 82.98346243 -120.18286133 75.91357422 C-113.19199358 71.12846716 -106.1919734 66.35683862 -99.19140625 61.5859375 C-93.2900614 57.56342194 -87.39302879 53.5346875 -81.5 49.5 C-73.73731628 44.18524521 -65.96549369 38.88399431 -58.19140625 33.5859375 C-53.06224214 30.08976112 -47.93480152 26.59112927 -42.81396484 23.08276367 C-41.27969839 22.03331764 -39.74358111 20.98657202 -38.20556641 19.94262695 C-33.83881105 16.97347198 -29.52391159 13.94624501 -25.2421875 10.85546875 C-24.26572266 10.16195312 -23.28925781 9.4684375 -22.28320312 8.75390625 C-20.39211793 7.41020703 -18.51241784 6.05028827 -16.64648438 4.671875 C-11.19292995 0.83042862 -6.76615136 -1.50860437 0 0 Z " fill="#01FBD8" transform="translate(787,230)"/>
</svg>
